<?xml version="1.0" encoding="UTF-8"?>
<svg version="1.1" xmlns="http://www.w3.org/2000/svg" width="1024" height="1024">
<path d="M0 0 C337.92 0 675.84 0 1024 0 C1024 337.92 1024 675.84 1024 1024 C686.08 1024 348.16 1024 0 1024 C0 686.08 0 348.16 0 0 Z " fill="#FEFEFE" transform="translate(0,0)"/>
<path d="M0 0 C0 6.6 0 13.2 0 20 C0.66 20 1.32 20 2 20 C2.24621094 19.15050781 2.49242187 18.30101562 2.74609375 17.42578125 C4.10845434 13.70369327 5.94448267 10.51040017 8.0625 7.1875 C8.42666016 6.60291016 8.79082031 6.01832031 9.16601562 5.41601562 C11.82402465 1.17597535 11.82402465 1.17597535 13 0 C19.93 0 26.86 0 34 0 C34 18.48 34 36.96 34 56 C27.4 56 20.8 56 14 56 C14 49.07 14 42.14 14 35 C13.01 35 12.02 35 11 35 C10.75507812 35.81726563 10.51015625 36.63453125 10.2578125 37.4765625 C8.77439561 41.63197255 6.88160321 45.45326037 4.875 49.375 C3.59625 51.89125 2.3175 54.4075 1 57 C-6.59 57 -14.18 57 -22 57 C-22.495 46.605 -22.495 46.605 -23 36 C-24.81321607 39.1245865 -26.62560416 42.24964806 -28.4375 45.375 C-28.95376953 46.26445312 -29.47003906 47.15390625 -30.00195312 48.0703125 C-30.49501953 48.92109375 -30.98808594 49.771875 -31.49609375 50.6484375 C-31.95169678 51.43395996 -32.4072998 52.21948242 -32.87670898 53.02880859 C-33.61989636 54.33298048 -34.32870397 55.65740795 -35 57 C-43.25 57 -51.5 57 -60 57 C-58.33958933 52.84897332 -56.74121269 49.86526494 -54.3125 46.1875 C-50.62554481 40.55119182 -47.02111841 34.86823743 -43.46606445 29.14770508 C-42.15259288 27.04481311 -40.82681304 24.94956027 -39.48901367 22.86206055 C-36.67296015 18.44822631 -33.95887732 14.17267529 -31.9140625 9.34375 C-25.83389696 -4.23402276 -12.8445947 -1.2270045 0 0 Z " fill="#8E8E8E" transform="translate(670,460)"/>
<path d="M0 0 C2.37684079 0.05520008 4.75380368 0.10538613 7.13085938 0.15039062 C12.94407565 0.27137799 18.75272493 0.45518179 24.5625 0.6875 C23.37131628 3.8333249 22.08824437 6.65995154 20.26953125 9.48828125 C19.58238037 10.56553467 19.58238037 10.56553467 18.88134766 11.66455078 C18.38425293 12.43524902 17.8871582 13.20594727 17.375 14 C16.29486375 15.69095346 15.21547361 17.38238369 14.13671875 19.07421875 C13.56099121 19.97575684 12.98526367 20.87729492 12.39208984 21.80615234 C8.48972999 27.95182234 4.65737813 34.14173361 0.81567383 40.32543945 C0.21907959 41.28281006 -0.37751465 42.24018066 -0.9921875 43.2265625 C-1.51280762 44.06396973 -2.03342773 44.90137695 -2.56982422 45.76416016 C-3.18615723 46.7288623 -3.80249023 47.69356445 -4.4375 48.6875 C-4.81796478 49.45064011 -5.19842957 50.21378021 -5.59042358 51.00004578 C-9.0015336 57.22375338 -9.0015336 57.22375338 -12.86245728 58.47064209 C-15.86187678 58.73046704 -18.73451547 58.70063445 -21.7421875 58.56640625 C-22.82130402 58.55367172 -23.90042053 58.54093719 -25.01223755 58.52781677 C-28.44797608 58.47756248 -31.87836772 58.36467944 -35.3125 58.25 C-37.64575687 58.20484332 -39.97909681 58.16378083 -42.3125 58.12695312 C-48.02264756 58.02789865 -53.72969191 57.8774476 -59.4375 57.6875 C-58.61468442 54.00744917 -57.19270664 51.38789637 -55.19140625 48.171875 C-54.52359131 47.09301025 -53.85577637 46.01414551 -53.16772461 44.90258789 C-52.44529068 43.74747044 -51.722713 42.59244287 -51 41.4375 C-50.26591206 40.2560546 -49.53227142 39.07433116 -48.79907227 37.89233398 C-46.68465988 34.48688948 -44.56128177 31.08710862 -42.4375 27.6875 C-41.42411345 26.05882125 -40.41103994 24.42994762 -39.3984375 22.80078125 C-34.87983886 15.5422436 -34.87983886 15.5422436 -33.59545898 13.67358398 C-32.30427564 11.61838527 -32.30427564 11.61838527 -31.50024414 8.82836914 C-26.23885667 -3.96190866 -11.57193739 -0.464343 0 0 Z " fill="#A4A4A4" transform="translate(617.4375,459.3125)"/>
<path d="M0 0 C1.67290822 0.0167988 3.34586091 0.02960398 5.01882935 0.03858948 C9.40945991 0.07285623 13.7973849 0.16116924 18.18695068 0.26092529 C22.67113644 0.35321004 27.15576213 0.39414314 31.640625 0.43945312 C40.43092536 0.53580334 49.21903184 0.68927911 58.0078125 0.87890625 C57.6778125 1.53890625 57.3478125 2.19890625 57.0078125 2.87890625 C32.2578125 2.38390625 32.2578125 2.38390625 7.0078125 1.87890625 C6.3478125 3.52890625 5.6878125 5.17890625 5.0078125 6.87890625 C3.58568466 9.28689164 2.13732108 11.64884491 0.6328125 14.00390625 C0.19654541 14.69403809 -0.23972168 15.38416992 -0.68920898 16.09521484 C-1.62917753 17.58146865 -2.57088754 19.06662223 -3.51416016 20.55078125 C-5.01640194 22.9170478 -6.51113885 25.28790287 -8.00390625 27.66015625 C-16.0890953 40.50065345 -16.0890953 40.50065345 -19.71875 46.08984375 C-20.13632568 46.73356934 -20.55390137 47.37729492 -20.98413086 48.04052734 C-22.10208831 49.75958383 -23.22470045 51.47561071 -24.34765625 53.19140625 C-26.10122166 55.83028851 -26.10122166 55.83028851 -26.9921875 58.87890625 C-10.8221875 58.87890625 5.3478125 58.87890625 22.0078125 58.87890625 C22.0078125 59.20890625 22.0078125 59.53890625 22.0078125 59.87890625 C15.32650607 59.90479414 8.64521307 59.92199153 1.96386719 59.93383789 C-0.29720543 59.93878938 -2.55827499 59.94555232 -4.81933594 59.9543457 C-20.57160557 60.01396026 -36.25955186 59.68032475 -51.9921875 58.87890625 C-50.74660175 54.75764862 -49.24268433 51.34223724 -46.9375 47.7109375 C-46.3283374 46.74422119 -45.7191748 45.77750488 -45.09155273 44.78149414 C-44.44001221 43.76176514 -43.78847168 42.74203613 -43.1171875 41.69140625 C-42.44824463 40.6336499 -41.77930176 39.57589355 -41.09008789 38.48608398 C-39.72069073 36.32176292 -38.34870194 34.15907944 -36.97412109 31.99804688 C-35.15520687 29.13546395 -33.3463858 26.2668943 -31.54296875 23.39453125 C-30.50533731 21.74340853 -29.46758432 20.09236217 -28.4296875 18.44140625 C-27.96643066 17.70446533 -27.50317383 16.96752441 -27.02587891 16.20825195 C-26.16154098 14.83953455 -25.2813069 13.48064911 -24.38121033 12.13517761 C-22.9397664 9.92573426 -22.9397664 9.92573426 -22.01499939 7.53173828 C-17.54069998 -1.82448949 -8.990876 -0.26470238 0 0 Z " fill="#E7E7E7" transform="translate(584.9921875,458.12109375)"/>
<path d="M0 0 C3.88604263 0.33979661 7.6768798 0.85214436 11.5 1.625 C10.30881628 4.7708249 9.02574437 7.59745154 7.20703125 10.42578125 C6.7488501 11.14403076 6.29066895 11.86228027 5.81860352 12.60229492 C5.32158936 13.3729126 4.8245752 14.14353027 4.3125 14.9375 C3.23371794 16.62718485 2.15562735 18.31731131 1.078125 20.0078125 C0.50255859 20.90918945 -0.07300781 21.81056641 -0.66601562 22.73925781 C-3.95317251 27.91154141 -7.1935154 33.11307241 -10.4375 38.3125 C-11.06358154 39.31514893 -11.68966309 40.31779785 -12.3347168 41.35083008 C-13.23444214 42.79171997 -13.23444214 42.79171997 -14.15234375 44.26171875 C-14.73717529 45.1729248 -15.32200684 46.08413086 -15.92456055 47.02294922 C-17.52635818 49.54701586 -17.52635818 49.54701586 -18.60083008 52.09033203 C-19.70526345 54.43819297 -20.51899973 55.94029452 -22.5 57.625 C-26.8090901 58.597697 -30.92408345 58.38068365 -35.3125 58.125 C-36.48232422 58.08890625 -37.65214844 58.0528125 -38.85742188 58.015625 C-41.74161831 57.92144716 -44.61913451 57.79007439 -47.5 57.625 C-44.02788209 50.3268104 -39.84278984 43.66273709 -35.38208008 36.93115234 C-31.86508825 31.56253003 -28.71360362 26.17430055 -25.90234375 20.40625 C-19.65469604 7.96199165 -15.30830353 -0.68401328 0 0 Z " fill="#515151" transform="translate(630.5,458.375)"/>
<path d="M0 0 C1.33998047 0.06960938 1.33998047 0.06960938 2.70703125 0.140625 C3.60808594 0.17671875 4.50914062 0.2128125 5.4375 0.25 C6.46810547 0.31960938 6.46810547 0.31960938 7.51953125 0.390625 C8.21988394 4.44225212 8.91329792 8.49500529 9.60083008 12.54882812 C9.83469191 13.92218534 10.07031258 15.29524445 10.30786133 16.66796875 C11.78676491 25.22247236 12.98088968 33.7192112 13.51953125 42.390625 C10.21953125 42.390625 6.91953125 42.390625 3.51953125 42.390625 C3.51953125 39.420625 3.51953125 36.450625 3.51953125 33.390625 C-6.1275749 32.72091097 -6.1275749 32.72091097 -14.43359375 36.23828125 C-15.669304 38.66953683 -15.669304 38.66953683 -16.48046875 42.390625 C-19.78046875 42.390625 -23.08046875 42.390625 -26.48046875 42.390625 C-22.27592026 34.6601258 -18.04641893 26.94358031 -13.78393555 19.24487305 C-13.11672476 18.03850203 -12.4507318 16.83145676 -11.78588867 15.6237793 C-10.8080419 13.84784574 -9.82631587 12.07410725 -8.84375 10.30078125 C-8.26923096 9.26058838 -7.69471191 8.22039551 -7.1027832 7.14868164 C-3.19369924 0.50294476 -3.19369924 0.50294476 0 0 Z " fill="#060606" transform="translate(394.48046875,465.609375)"/>
<path d="M0 0 C2.97 0 5.94 0 9 0 C8.68954268 1.9169986 8.37655329 3.83358723 8.0625 5.75 C7.88847656 6.81734375 7.71445312 7.8846875 7.53515625 8.984375 C7.11687197 11.34142219 6.58059975 13.677601 6 16 C11.61 16 17.22 16 23 16 C23.144375 14.288125 23.28875 12.57625 23.4375 10.8125 C23.74733686 7.13872012 24.21604632 3.60355181 25 0 C27.97 0 30.94 0 34 0 C33.41964864 7.19896517 32.24782008 13.98356538 30.5625 21 C30.12499949 22.85385974 29.68879358 24.7080255 29.25390625 26.5625 C29.0439502 27.45710938 28.83399414 28.35171875 28.61767578 29.2734375 C27.66024854 33.49974083 26.82832333 37.74665602 26 42 C23.03 42 20.06 42 17 42 C17.28632177 40.14500045 17.57934415 38.29103476 17.875 36.4375 C18.03742188 35.40496094 18.19984375 34.37242187 18.3671875 33.30859375 C19.03342568 29.82523734 20.02570218 26.41004237 21 23 C15.39 23 9.78 23 4 23 C3.67 25.64 3.34 28.28 3 31 C2.66369834 33.00308143 2.31181147 35.00367213 1.9375 37 C1.76089844 37.94875 1.58429688 38.8975 1.40234375 39.875 C1.26957031 40.57625 1.13679688 41.2775 1 42 C-1.97 42 -4.94 42 -8 42 C-7.36425758 32.92052371 -5.43573776 24.22700653 -3.4375 15.375 C-3.1042863 13.87902452 -2.77159993 12.38293147 -2.43945312 10.88671875 C-1.6323732 7.25643787 -0.81818261 3.62779682 0 0 Z " fill="#060606" transform="translate(460,466)"/>
<path d="M0 0 C2.97 0 5.94 0 9 0 C8.01 5.28 7.02 10.56 6 16 C11.28 16 16.56 16 22 16 C22.33 13.69 22.66 11.38 23 9 C23.60852648 5.98401838 24.30800891 2.99862804 25 0 C27.97 0 30.94 0 34 0 C32.91876692 8.40779756 31.29204913 16.65638797 29.5 24.9375 C29.28641846 25.93209229 29.07283691 26.92668457 28.8527832 27.95141602 C27.80234186 32.73684978 26.68543035 37.3884753 25 42 C22.36 42 19.72 42 17 42 C17.62425943 35.54931918 18.66021633 29.3416427 20 23 C14.72 23.33 9.44 23.66 4 24 C2.68 29.94 1.36 35.88 0 42 C-2.97 42 -5.94 42 -9 42 C-1.6419214 4.92576419 -1.6419214 4.92576419 0 0 Z " fill="#060606" transform="translate(338,466)"/>
<path d="M0 0 C10.23 0 20.46 0 31 0 C30.67 2.31 30.34 4.62 30 7 C22.41 7 14.82 7 7 7 C6.67 9.97 6.34 12.94 6 16 C12.6 16 19.2 16 26 16 C25 23 25 23 24 24 C22.43827255 24.08685603 20.87270656 24.10702219 19.30859375 24.09765625 C18.36435547 24.09443359 17.42011719 24.09121094 16.44726562 24.08789062 C15.45404297 24.07951172 14.46082031 24.07113281 13.4375 24.0625 C12.44041016 24.05798828 11.44332031 24.05347656 10.41601562 24.04882812 C7.94395151 24.03700007 5.47200482 24.02051849 3 24 C3.061875 25.3303125 3.061875 25.3303125 3.125 26.6875 C3 30 3 30 1 35 C8.59 35 16.18 35 24 35 C24 36.98 24 38.96 24 41 C23 42 23 42 19.94897461 42.11352539 C18.60008729 42.11336634 17.25119386 42.10767612 15.90234375 42.09765625 C14.83905602 42.09553383 14.83905602 42.09553383 13.75428772 42.09336853 C11.48198288 42.08775443 9.20977525 42.07519963 6.9375 42.0625 C5.40039204 42.05748681 3.86328255 42.05292359 2.32617188 42.04882812 C-1.44925642 42.03778042 -5.22461171 42.02050641 -9 42 C-1.6419214 4.92576419 -1.6419214 4.92576419 0 0 Z " fill="#070707" transform="translate(503,466)"/>
<path d="M0 0 C2.23637503 1.45611642 4.02020981 3.27802231 5.90234375 5.16015625 C6.02734375 8.78515625 6.02734375 8.78515625 5.90234375 12.16015625 C3.26234375 12.16015625 0.62234375 12.16015625 -2.09765625 12.16015625 C-2.38640625 11.52078125 -2.67515625 10.88140625 -2.97265625 10.22265625 C-3.92589076 8.00809546 -3.92589076 8.00809546 -6.09765625 7.16015625 C-10.33736683 6.92461677 -13.45943927 6.83169739 -17.09765625 9.16015625 C-17.09765625 10.81015625 -17.09765625 12.46015625 -17.09765625 14.16015625 C-16.54078125 14.34191406 -15.98390625 14.52367187 -15.41015625 14.7109375 C-12.96845596 15.51521378 -10.53306053 16.33702736 -8.09765625 17.16015625 C-6.98970703 17.51980469 -6.98970703 17.51980469 -5.859375 17.88671875 C-1.80276314 19.27712055 1.48133112 20.42776178 3.90234375 24.16015625 C4.38033194 28.46204992 4.41970319 30.9620607 2.71484375 34.91015625 C-0.87687752 39.36884472 -4.48592444 41.9357784 -10.09765625 43.16015625 C-17.52955692 43.84331146 -23.09822279 43.85536505 -29.09765625 39.16015625 C-31.52096184 35.99932287 -31.27449765 33.05066715 -31.09765625 29.16015625 C-28.12765625 29.16015625 -25.15765625 29.16015625 -22.09765625 29.16015625 C-21.78828125 29.96453125 -21.47890625 30.76890625 -21.16015625 31.59765625 C-20.3343028 34.0509603 -20.3343028 34.0509603 -19.09765625 35.16015625 C-17.66296035 35.2591008 -16.22325228 35.2898636 -14.78515625 35.28515625 C-14.00527344 35.28773438 -13.22539062 35.2903125 -12.421875 35.29296875 C-10.18514086 35.16515537 -8.24498646 34.77929494 -6.09765625 34.16015625 C-5.76765625 31.85015625 -5.43765625 29.54015625 -5.09765625 27.16015625 C-6.19464844 26.9178125 -7.29164063 26.67546875 -8.421875 26.42578125 C-9.87646516 26.08794095 -11.33088344 25.74936 -12.78515625 25.41015625 C-13.86700195 25.17425781 -13.86700195 25.17425781 -14.97070312 24.93359375 C-19.55996813 23.84390526 -22.62599868 22.53224429 -26.09765625 19.16015625 C-27.65242315 16.05062246 -27.38410062 13.59748864 -27.09765625 10.16015625 C-22.16560379 -0.11495305 -10.70243609 -4.28496045 0 0 Z " fill="#070707" transform="translate(444.09765625,465.83984375)"/>
<path d="M0 0 C0.99 0.33 1.98 0.66 3 1 C2.69408936 1.48130371 2.38817871 1.96260742 2.07299805 2.45849609 C-3.56935423 11.343809 -9.17232154 20.24683175 -14.625 29.25 C-18.16891789 35.07411809 -21.76817659 40.85662603 -25.5 46.5625 C-26.11415771 47.51914551 -26.11415771 47.51914551 -26.74072266 48.49511719 C-29.64838043 52.88279348 -29.64838043 52.88279348 -33 54 C-31.28885542 48.91749319 -28.38333107 44.66333982 -25.5 40.1875 C-24.40978006 38.47940672 -23.3199422 36.77106952 -22.23046875 35.0625 C-21.68567871 34.21042969 -21.14088867 33.35835938 -20.57958984 32.48046875 C-18.29855446 28.89850283 -16.05477514 25.29380352 -13.8125 21.6875 C-9.27933276 14.41230602 -4.65571815 7.19724546 0 0 Z " fill="#DEDEDE" transform="translate(641,462)"/>
<path d="M0 0 C2.42130331 3.63195496 2.21022785 5.38349348 2.125 9.6875 C2.10695313 10.86699219 2.08890625 12.04648437 2.0703125 13.26171875 C2.03550781 14.61716797 2.03550781 14.61716797 2 16 C-1.3 16 -4.6 16 -8 16 C-5.36 10.72 -2.72 5.44 0 0 Z " fill="#F2F2F2" transform="translate(394,476)"/>
<path d="M0 0 C0.33 0 0.66 0 1 0 C1 5.28 1 10.56 1 16 C1.66 16 2.32 16 3 16 C2.67 17.32 2.34 18.64 2 20 C1.34 20 0.68 20 0 20 C0 13.4 0 6.8 0 0 Z " fill="#E6E6E6" transform="translate(670,460)"/>
</svg>
